<?xml version="1.0" encoding="UTF-8" ?>
<!DOCTYPE svg PUBLIC "-//W3C//DTD SVG 1.1//EN" "http://www.w3.org/Graphics/SVG/1.1/DTD/svg11.dtd">
<svg width="500pt" height="500pt" viewBox="0 0 500 500" version="1.1" xmlns="http://www.w3.org/2000/svg">
<g id="#a60000ff">
<path fill="#a60000" opacity="1.00" d=" M 242.40 0.00 L 257.69 0.00 C 294.48 0.97 331.06 10.18 363.85 26.92 C 416.82 53.63 459.61 99.83 482.17 154.71 C 491.66 177.56 497.63 201.86 500.00 226.49 L 500.00 274.48 C 496.34 313.16 483.51 350.95 462.75 383.81 C 442.91 415.38 415.92 442.43 384.40 462.37 C 351.43 483.34 313.45 496.24 274.57 500.00 L 226.52 500.00 C 183.07 495.86 140.80 480.15 105.29 454.76 C 78.21 435.48 55.02 410.79 37.48 382.55 C 14.20 345.23 1.17 301.66 0.00 257.70 L 0.00 244.29 C 0.70 213.35 7.21 182.54 19.15 153.99 C 40.06 103.65 77.96 60.63 125.18 33.42 C 160.69 12.79 201.37 1.26 242.40 0.00 M 118.65 88.05 C 120.67 91.66 124.24 94.06 126.85 97.23 C 149.95 119.51 172.16 142.74 195.23 165.05 C 191.40 180.96 187.47 196.86 183.58 212.75 C 180.95 210.25 178.77 207.14 175.44 205.49 C 172.15 192.01 168.80 178.54 165.54 165.05 C 160.73 164.96 155.92 165.01 151.12 165.01 C 152.92 171.80 154.72 178.60 156.40 185.43 C 152.81 182.32 150.01 178.22 145.84 175.87 C 145.85 172.24 145.82 168.62 145.84 165.00 C 142.31 165.00 138.78 164.99 135.26 164.99 C 133.98 163.50 132.70 162.02 131.29 160.67 C 117.34 146.92 103.68 132.86 89.66 119.19 C 88.52 117.60 87.27 119.52 86.58 120.42 C 75.88 134.13 66.61 149.03 59.65 164.97 C 51.10 165.03 42.55 164.98 34.00 165.00 C 34.00 189.00 34.00 213.00 34.00 237.00 C 36.57 237.00 39.14 237.00 41.71 237.00 C 39.49 276.78 48.24 317.30 67.88 352.10 C 87.42 387.37 117.55 416.60 153.14 435.47 C 171.32 444.90 190.80 451.81 210.90 455.75 C 227.76 458.80 244.89 460.11 262.01 459.33 C 268.62 458.18 275.40 458.61 281.96 457.07 C 319.80 451.82 355.54 435.00 384.97 410.84 C 374.69 400.06 363.43 390.24 352.88 379.72 L 352.15 378.33 L 351.69 378.69 C 351.61 378.55 351.45 378.26 351.37 378.12 L 351.63 378.22 C 344.02 371.57 337.30 364.00 329.97 357.05 C 324.36 352.02 319.30 346.42 313.76 341.30 C 309.50 337.11 304.94 333.18 301.23 328.48 C 316.26 328.38 331.30 328.50 346.33 328.41 C 346.37 323.92 346.15 319.42 346.58 314.94 C 367.30 335.39 388.14 355.74 409.25 375.80 C 409.75 376.15 410.76 376.84 411.26 377.19 L 411.26 377.84 C 411.28 382.92 411.34 388.00 411.19 393.08 C 417.07 393.17 422.96 393.17 428.85 393.08 C 428.59 381.99 428.84 370.89 428.72 359.79 L 428.79 359.20 C 432.00 355.37 434.15 350.79 436.50 346.42 C 448.01 324.55 455.14 300.57 458.43 276.13 C 458.55 272.40 458.87 268.68 459.47 265.00 C 462.98 265.00 466.48 265.00 469.99 264.99 C 469.99 260.11 470.04 255.22 469.96 250.34 C 466.59 250.39 463.23 250.41 459.87 250.38 C 429.93 250.39 399.99 250.31 370.05 250.41 L 370.05 250.13 C 399.97 250.06 429.92 250.42 459.82 249.95 C 460.09 210.69 448.46 171.55 427.53 138.38 C 408.86 109.07 382.92 84.40 352.56 67.47 C 331.21 55.61 307.78 47.36 283.62 43.66 C 269.23 40.88 254.50 40.95 239.91 41.28 C 195.88 43.35 152.69 60.03 118.65 88.05 Z" />
<path fill="#a60000" opacity="1.00" d=" M 206.65 176.55 C 209.54 179.39 212.41 182.25 215.44 184.94 C 214.16 190.18 213.96 195.61 213.76 200.98 C 213.87 210.47 214.71 220.62 220.29 228.64 C 224.82 235.28 233.14 238.47 240.99 238.05 C 248.33 238.51 256.03 236.17 261.01 230.56 C 267.36 237.29 274.12 243.61 280.49 250.32 C 279.07 250.34 277.65 250.35 276.24 250.37 C 276.32 268.39 276.28 286.41 276.26 304.43 C 269.63 298.42 263.74 291.62 256.82 285.92 C 256.54 289.60 256.45 293.30 256.55 297.00 C 256.56 329.21 256.55 361.43 256.56 393.64 C 250.52 393.71 244.44 394.13 238.43 393.39 C 244.37 393.39 250.31 393.42 256.26 393.39 C 256.21 357.07 256.28 320.74 256.23 284.41 C 256.11 273.01 256.37 261.61 256.09 250.22 C 250.30 250.32 244.51 250.28 238.72 250.26 C 238.67 256.00 238.71 261.74 238.67 267.48 C 231.55 260.25 224.30 253.15 217.16 245.93 C 209.66 238.52 202.43 230.82 194.43 223.94 C 198.48 208.14 202.57 192.35 206.65 176.55 Z" />
<path fill="#a60000" opacity="1.00" d=" M 47.83 177.63 C 49.97 177.63 52.12 177.63 54.27 177.65 C 51.84 183.86 50.42 190.40 48.03 196.62 C 47.60 190.30 47.94 183.96 47.83 177.63 Z" />
<path fill="#a60000" opacity="1.00" d=" M 228.37 198.34 C 235.94 205.51 243.13 213.07 250.61 220.35 C 246.62 226.13 237.12 226.75 232.83 220.99 C 228.02 214.53 228.38 205.99 228.37 198.34 Z" />
<path fill="#a60000" opacity="1.00" d=" M 293.60 268.96 C 293.68 267.41 293.30 265.49 294.85 264.47 L 295.67 265.02 C 312.29 281.34 328.85 297.74 345.63 313.89 C 328.32 313.91 311.01 313.90 293.69 313.90 C 293.57 298.92 293.76 283.94 293.60 268.96 Z" />
</g>
<g id="#ff0000ff">
<path fill="#ff0000" opacity="1.00" d=" M 118.65 88.05 C 152.69 60.03 195.88 43.35 239.91 41.28 C 254.50 40.95 269.23 40.88 283.62 43.66 C 307.78 47.36 331.21 55.61 352.56 67.47 C 382.92 84.40 408.86 109.07 427.53 138.38 C 448.46 171.55 460.09 210.69 459.82 249.95 C 429.92 250.42 399.97 250.06 370.05 250.13 L 370.05 250.41 C 369.95 255.27 370.00 260.13 370.00 264.99 C 383.75 265.02 397.49 264.97 411.23 265.02 C 411.30 302.41 411.25 339.80 411.26 377.19 C 410.76 376.84 409.75 376.15 409.25 375.80 C 388.14 355.74 367.30 335.39 346.58 314.94 C 346.26 314.58 345.95 314.23 345.63 313.89 C 328.85 297.74 312.29 281.34 295.67 265.02 C 314.76 264.97 333.86 265.03 352.95 264.99 C 352.81 260.30 352.98 255.61 352.90 250.92 L 352.69 250.37 C 328.63 250.26 304.56 250.36 280.49 250.32 C 274.12 243.61 267.36 237.29 261.01 230.56 C 268.28 221.85 269.18 209.85 268.96 198.97 C 268.71 189.34 267.27 178.83 260.64 171.35 C 255.83 165.78 248.21 163.49 241.02 163.95 C 234.08 163.57 226.86 166.01 222.18 171.29 C 218.64 175.06 216.75 180.01 215.44 184.94 C 212.41 182.25 209.54 179.39 206.65 176.55 C 207.65 172.70 208.66 168.85 209.64 165.00 C 204.84 165.02 200.03 164.95 195.23 165.05 C 172.16 142.74 149.95 119.51 126.85 97.23 C 124.24 94.06 120.67 91.66 118.65 88.05 M 278.34 165.03 C 278.38 189.01 278.38 212.99 278.34 236.97 C 283.03 237.03 287.71 236.99 292.40 237.00 C 292.47 229.27 292.27 221.54 292.51 213.81 C 296.14 213.28 299.67 212.24 303.03 210.77 C 307.01 219.50 310.95 228.26 314.91 237.00 C 320.60 237.00 326.29 237.00 331.99 237.00 C 326.22 225.47 320.66 213.84 314.80 202.37 C 324.17 192.34 328.42 178.54 328.66 165.01 C 323.89 165.00 319.13 164.98 314.37 165.02 C 314.53 173.84 312.40 182.97 307.15 190.18 C 303.65 195.07 298.29 198.58 292.40 199.80 C 292.40 188.20 292.40 176.60 292.40 165.00 C 287.71 165.00 283.02 164.97 278.34 165.03 M 339.00 165.00 C 339.00 189.00 339.00 213.00 339.00 237.00 C 355.61 237.00 372.23 237.01 388.84 236.99 C 388.83 232.86 388.83 228.73 388.83 224.60 C 376.81 224.52 364.79 224.72 352.78 224.50 C 352.89 218.88 352.82 213.26 352.83 207.64 C 361.76 207.63 370.70 207.64 379.63 207.64 C 379.64 203.43 379.63 199.22 379.65 195.02 C 370.71 194.98 361.77 195.01 352.84 195.00 C 352.83 189.21 352.84 183.43 352.83 177.64 C 364.83 177.64 376.83 177.64 388.83 177.64 C 388.84 173.43 388.83 169.22 388.84 165.01 C 372.23 164.99 355.61 165.00 339.00 165.00 Z" />
<path fill="#ff0000" opacity="1.00" d=" M 86.58 120.42 C 87.27 119.52 88.52 117.60 89.66 119.19 C 103.68 132.86 117.34 146.92 131.29 160.67 C 132.70 162.02 133.98 163.50 135.26 164.99 C 122.17 165.01 109.09 164.99 96.00 165.00 C 96.00 189.00 96.00 213.00 96.00 237.00 C 112.61 237.00 129.22 237.00 145.84 237.00 C 145.84 232.86 145.84 228.73 145.83 224.60 C 133.85 224.61 121.88 224.55 109.90 224.63 C 109.78 218.97 109.85 213.31 109.83 207.64 C 118.77 207.63 127.70 207.65 136.64 207.63 C 136.64 203.43 136.64 199.22 136.65 195.02 C 127.71 194.98 118.77 195.01 109.84 195.00 C 109.83 189.21 109.84 183.43 109.83 177.64 C 121.83 177.64 133.83 177.63 145.83 177.65 C 145.83 177.20 145.84 176.31 145.84 175.87 C 150.01 178.22 152.81 182.32 156.40 185.43 C 160.71 201.97 165.01 218.51 169.21 235.09 C 169.41 235.54 169.81 236.44 170.02 236.89 C 177.01 237.19 184.02 236.90 191.02 237.00 C 192.22 232.66 193.29 228.29 194.43 223.94 C 202.43 230.82 209.66 238.52 217.16 245.93 C 224.30 253.15 231.55 260.25 238.67 267.48 L 238.67 267.91 C 238.66 299.63 238.62 331.35 238.69 363.07 C 216.58 332.53 194.83 301.73 172.86 271.08 C 167.75 264.24 163.19 256.94 157.75 250.36 C 151.92 250.04 146.06 250.34 140.21 250.27 C 140.27 297.98 140.26 345.69 140.21 393.40 C 146.10 393.41 152.00 393.39 157.89 393.41 C 157.90 355.87 157.87 318.33 157.90 280.79 C 176.68 306.51 194.99 332.58 213.61 358.42 C 221.82 370.12 230.40 381.57 238.43 393.39 C 244.44 394.13 250.52 393.71 256.56 393.64 C 256.55 361.43 256.56 329.21 256.55 297.00 C 256.45 293.30 256.54 289.60 256.82 285.92 C 263.74 291.62 269.63 298.42 276.26 304.43 L 276.26 305.07 C 276.21 334.45 276.37 363.83 276.18 393.21 C 301.77 393.26 327.36 393.26 352.95 393.21 C 352.80 388.71 352.99 384.22 352.88 379.72 C 363.43 390.24 374.69 400.06 384.97 410.84 C 355.54 435.00 319.80 451.82 281.96 457.07 C 275.40 458.61 268.62 458.18 262.01 459.33 C 244.89 460.11 227.76 458.80 210.90 455.75 C 190.80 451.81 171.32 444.90 153.14 435.47 C 117.55 416.60 87.42 387.37 67.88 352.10 C 48.24 317.30 39.49 276.78 41.71 237.00 C 43.75 237.00 45.79 236.99 47.84 237.00 C 47.83 228.33 47.83 219.67 47.84 211.01 C 51.89 211.00 55.93 210.99 59.98 211.01 C 63.49 219.64 66.98 228.28 70.41 236.95 C 75.94 237.03 81.48 237.04 87.02 236.94 C 82.54 227.32 78.18 217.65 73.73 208.02 C 78.41 204.98 82.20 200.42 83.39 194.88 C 85.19 187.16 84.83 177.95 79.26 171.79 C 74.38 166.35 66.71 164.59 59.65 164.97 C 66.61 149.03 75.88 134.13 86.58 120.42 M 110.44 374.60 C 104.46 376.30 100.52 382.97 101.95 389.03 C 103.10 394.93 109.04 399.44 115.06 398.76 C 122.23 398.58 127.90 391.04 126.30 384.08 C 125.16 377.00 117.19 372.38 110.44 374.60 Z" />
<path fill="#ff0000" opacity="1.00" d=" M 233.45 180.44 C 237.60 175.55 246.08 175.91 249.88 181.04 C 253.39 185.93 254.18 192.17 254.43 198.03 C 254.69 205.59 254.49 213.61 250.61 220.35 C 243.13 213.07 235.94 205.51 228.37 198.34 C 228.63 192.16 229.30 185.35 233.45 180.44 Z" />
<path fill="#ff0000" opacity="1.00" d=" M 54.27 177.65 C 58.51 177.80 63.56 176.64 66.82 180.12 C 71.28 185.33 70.26 195.93 62.86 197.91 C 57.83 198.71 52.72 198.24 47.65 198.35 C 47.75 197.91 47.93 197.05 48.03 196.62 C 50.42 190.40 51.84 183.86 54.27 177.65 Z" />
<path fill="#ff0000" opacity="1.00" d=" M 175.44 205.49 C 178.77 207.14 180.95 210.25 183.58 212.75 C 182.53 216.86 181.63 221.01 180.53 225.10 C 178.29 218.72 177.20 212.01 175.44 205.49 Z" />
<path fill="#ff0000" opacity="1.00" d=" M 428.78 265.01 C 439.01 264.98 449.24 265.01 459.47 265.00 C 458.87 268.68 458.55 272.40 458.43 276.13 C 455.14 300.57 448.01 324.55 436.50 346.42 C 434.15 350.79 432.00 355.37 428.79 359.20 C 428.73 327.80 428.75 296.41 428.78 265.01 Z" />
<path fill="#ff0000" opacity="1.00" d=" M 293.68 328.48 C 296.19 328.49 298.71 328.48 301.23 328.48 C 304.94 333.18 309.50 337.11 313.76 341.30 C 319.30 346.42 324.36 352.02 329.97 357.05 C 337.30 364.00 344.02 371.57 351.63 378.22 L 351.37 378.12 L 351.12 378.03 C 347.13 379.13 343.00 378.55 338.94 378.65 C 323.85 378.67 308.77 378.66 293.68 378.66 C 293.67 361.93 293.68 345.20 293.68 328.48 Z" />
</g>
<g id="#ffffffff">
<path fill="#ffffff" opacity="1.00" d=" M 222.18 171.29 C 226.86 166.01 234.08 163.57 241.02 163.95 C 248.21 163.49 255.83 165.78 260.64 171.35 C 267.27 178.83 268.71 189.34 268.96 198.97 C 269.18 209.85 268.28 221.85 261.01 230.56 C 256.03 236.17 248.33 238.51 240.99 238.05 C 233.14 238.47 224.82 235.28 220.29 228.64 C 214.71 220.62 213.87 210.47 213.76 200.98 C 213.96 195.61 214.16 190.18 215.44 184.94 C 216.75 180.01 218.64 175.06 222.18 171.29 M 233.45 180.44 C 229.30 185.35 228.63 192.16 228.37 198.34 C 228.38 205.99 228.02 214.53 232.83 220.99 C 237.12 226.75 246.62 226.13 250.61 220.35 C 254.49 213.61 254.69 205.59 254.43 198.03 C 254.18 192.17 253.39 185.93 249.88 181.04 C 246.08 175.91 237.60 175.55 233.45 180.44 Z" />
<path fill="#ffffff" opacity="1.00" d=" M 34.00 165.00 C 42.55 164.98 51.10 165.03 59.65 164.97 C 66.71 164.59 74.38 166.35 79.26 171.79 C 84.83 177.95 85.19 187.16 83.39 194.88 C 82.20 200.42 78.41 204.98 73.73 208.02 C 78.18 217.65 82.54 227.32 87.02 236.94 C 81.48 237.04 75.94 237.03 70.41 236.95 C 66.98 228.28 63.49 219.64 59.98 211.01 C 55.93 210.99 51.89 211.00 47.84 211.01 C 47.83 219.67 47.83 228.33 47.84 237.00 C 45.79 236.99 43.75 237.00 41.71 237.00 C 39.14 237.00 36.57 237.00 34.00 237.00 C 34.00 213.00 34.00 189.00 34.00 165.00 M 47.83 177.63 C 47.94 183.96 47.60 190.30 48.03 196.62 C 47.93 197.05 47.75 197.91 47.65 198.35 C 52.72 198.24 57.83 198.71 62.86 197.91 C 70.26 195.93 71.28 185.33 66.82 180.12 C 63.56 176.64 58.51 177.80 54.27 177.65 C 52.12 177.63 49.97 177.63 47.83 177.63 Z" />
<path fill="#ffffff" opacity="1.00" d=" M 96.00 165.00 C 109.09 164.99 122.17 165.01 135.26 164.99 C 138.78 164.99 142.31 165.00 145.84 165.00 C 145.82 168.62 145.85 172.24 145.84 175.87 C 145.84 176.31 145.83 177.20 145.83 177.65 C 133.83 177.63 121.83 177.64 109.83 177.64 C 109.84 183.43 109.83 189.21 109.84 195.00 C 118.77 195.01 127.71 194.98 136.65 195.02 C 136.64 199.22 136.64 203.43 136.64 207.63 C 127.70 207.65 118.77 207.63 109.83 207.64 C 109.85 213.31 109.78 218.97 109.90 224.63 C 121.88 224.55 133.85 224.61 145.83 224.60 C 145.84 228.73 145.84 232.86 145.84 237.00 C 129.22 237.00 112.61 237.00 96.00 237.00 C 96.00 213.00 96.00 189.00 96.00 165.00 Z" />
<path fill="#ffffff" opacity="1.00" d=" M 151.12 165.01 C 155.92 165.01 160.73 164.96 165.54 165.05 C 168.80 178.54 172.15 192.01 175.44 205.49 C 177.20 212.01 178.29 218.72 180.53 225.10 C 181.63 221.01 182.53 216.86 183.58 212.75 C 187.47 196.86 191.40 180.96 195.23 165.05 C 200.03 164.95 204.84 165.02 209.64 165.00 C 208.66 168.85 207.65 172.70 206.65 176.55 C 202.57 192.35 198.48 208.14 194.43 223.94 C 193.29 228.29 192.22 232.66 191.02 237.00 C 184.02 236.90 177.01 237.19 170.02 236.89 C 169.81 236.44 169.41 235.54 169.21 235.09 C 165.01 218.51 160.71 201.97 156.40 185.43 C 154.72 178.60 152.92 171.80 151.12 165.01 Z" />
<path fill="#ffffff" opacity="1.00" d=" M 278.34 165.03 C 283.02 164.97 287.71 165.00 292.40 165.00 C 292.40 176.60 292.40 188.20 292.40 199.80 C 298.29 198.58 303.65 195.07 307.15 190.18 C 312.40 182.97 314.53 173.84 314.37 165.02 C 319.13 164.98 323.89 165.00 328.66 165.01 C 328.42 178.54 324.17 192.34 314.80 202.37 C 320.66 213.84 326.22 225.47 331.99 237.00 C 326.29 237.00 320.60 237.00 314.91 237.00 C 310.95 228.26 307.01 219.50 303.03 210.77 C 299.67 212.24 296.14 213.28 292.51 213.81 C 292.27 221.54 292.47 229.27 292.40 237.00 C 287.71 236.99 283.03 237.03 278.34 236.97 C 278.38 212.99 278.38 189.01 278.34 165.03 Z" />
<path fill="#ffffff" opacity="1.00" d=" M 339.00 165.00 C 355.61 165.00 372.23 164.99 388.84 165.01 C 388.83 169.22 388.84 173.43 388.83 177.64 C 376.83 177.64 364.83 177.64 352.83 177.64 C 352.84 183.43 352.83 189.21 352.84 195.00 C 361.77 195.01 370.71 194.98 379.65 195.02 C 379.63 199.22 379.64 203.43 379.63 207.64 C 370.70 207.64 361.76 207.63 352.83 207.64 C 352.82 213.26 352.89 218.88 352.78 224.50 C 364.79 224.72 376.81 224.52 388.83 224.60 C 388.83 228.73 388.83 232.86 388.84 236.99 C 372.23 237.01 355.61 237.00 339.00 237.00 C 339.00 213.00 339.00 189.00 339.00 165.00 Z" />
</g>
<g id="#ff7d7dff">
<path fill="#ff7d7d" opacity="1.00" d=" M 140.21 250.27 C 146.06 250.34 151.92 250.04 157.75 250.36 C 163.19 256.94 167.75 264.24 172.86 271.08 C 194.83 301.73 216.58 332.53 238.69 363.07 C 238.62 331.35 238.66 299.63 238.67 267.91 C 245.00 272.89 250.01 279.29 256.23 284.41 C 256.28 320.74 256.21 357.07 256.26 393.39 C 250.31 393.42 244.37 393.39 238.43 393.39 C 230.40 381.57 221.82 370.12 213.61 358.42 C 194.99 332.58 176.68 306.51 157.90 280.79 C 157.87 318.33 157.90 355.87 157.89 393.41 C 152.00 393.39 146.10 393.41 140.21 393.40 C 140.26 345.69 140.27 297.98 140.21 250.27 Z" />
<path fill="#ff7d7d" opacity="1.00" d=" M 281.93 251.14 C 284.96 250.92 287.99 250.76 291.03 250.81 C 311.65 250.92 332.28 250.68 352.90 250.92 C 352.98 255.61 352.81 260.30 352.95 264.99 C 333.86 265.03 314.76 264.97 295.67 265.02 L 294.85 264.47 C 290.79 259.78 285.92 255.89 281.93 251.14 Z" />
<path fill="#ff7d7d" opacity="1.00" d=" M 370.05 250.41 C 399.99 250.31 429.93 250.39 459.87 250.38 C 459.90 255.25 459.76 260.13 459.47 265.00 C 449.24 265.01 439.01 264.98 428.78 265.01 C 428.75 296.41 428.73 327.80 428.79 359.20 L 428.72 359.79 C 424.47 367.00 419.77 374.06 414.14 380.27 C 413.17 379.46 412.22 378.65 411.26 377.84 L 411.26 377.19 C 411.25 339.80 411.30 302.41 411.23 265.02 C 397.49 264.97 383.75 265.02 370.00 264.99 C 370.00 260.13 369.95 255.27 370.05 250.41 Z" />
<path fill="#ff7d7d" opacity="1.00" d=" M 276.26 305.07 C 284.55 312.13 291.80 320.31 299.79 327.69 C 297.62 327.88 295.44 328.05 293.27 328.21 C 293.10 345.08 293.12 361.96 293.22 378.83 C 312.44 379.66 331.71 378.75 350.94 379.28 C 351.13 379.13 351.50 378.84 351.69 378.69 L 352.15 378.33 L 352.88 379.72 C 352.99 384.22 352.80 388.71 352.95 393.21 C 327.36 393.26 301.77 393.26 276.18 393.21 C 276.37 363.83 276.21 334.45 276.26 305.07 Z" />
<path fill="#ff7d7d" opacity="1.00" d=" M 110.44 374.60 C 117.19 372.38 125.16 377.00 126.30 384.08 C 127.90 391.04 122.23 398.58 115.06 398.76 C 109.04 399.44 103.10 394.93 101.95 389.03 C 100.52 382.97 104.46 376.30 110.44 374.60 Z" />
</g>
<g id="#d27d7dff">
<path fill="#d27d7d" opacity="1.00" d=" M 238.72 250.26 C 244.51 250.28 250.30 250.32 256.09 250.22 C 256.37 261.61 256.11 273.01 256.23 284.41 C 250.01 279.29 245.00 272.89 238.67 267.91 L 238.67 267.48 C 238.71 261.74 238.67 256.00 238.72 250.26 Z" />
<path fill="#d27d7d" opacity="1.00" d=" M 276.24 250.37 C 277.65 250.35 279.07 250.34 280.49 250.32 C 304.56 250.36 328.63 250.26 352.69 250.37 L 352.90 250.92 C 332.28 250.68 311.65 250.92 291.03 250.81 C 287.99 250.76 284.96 250.92 281.93 251.14 C 285.92 255.89 290.79 259.78 294.85 264.47 C 293.30 265.49 293.68 267.41 293.60 268.96 C 293.76 283.94 293.57 298.92 293.69 313.90 C 311.01 313.90 328.32 313.91 345.63 313.89 C 345.95 314.23 346.26 314.58 346.58 314.94 C 346.15 319.42 346.37 323.92 346.33 328.41 C 331.30 328.50 316.26 328.38 301.23 328.48 C 298.71 328.48 296.19 328.49 293.68 328.48 C 293.68 345.20 293.67 361.93 293.68 378.66 C 308.77 378.66 323.85 378.67 338.94 378.65 C 343.00 378.55 347.13 379.13 351.12 378.03 L 351.37 378.12 C 351.45 378.26 351.61 378.55 351.69 378.69 C 351.50 378.84 351.13 379.13 350.94 379.28 C 331.71 378.75 312.44 379.66 293.22 378.83 C 293.12 361.96 293.10 345.08 293.27 328.21 C 295.44 328.05 297.62 327.88 299.79 327.69 C 291.80 320.31 284.55 312.13 276.26 305.07 L 276.26 304.43 C 276.28 286.41 276.32 268.39 276.24 250.37 Z" />
<path fill="#d27d7d" opacity="1.00" d=" M 459.87 250.38 C 463.23 250.41 466.59 250.39 469.96 250.34 C 470.04 255.22 469.99 260.11 469.99 264.99 C 466.48 265.00 462.98 265.00 459.47 265.00 C 459.76 260.13 459.90 255.25 459.87 250.38 Z" />
<path fill="#d27d7d" opacity="1.00" d=" M 414.14 380.27 C 419.77 374.06 424.47 367.00 428.72 359.79 C 428.84 370.89 428.59 381.99 428.85 393.08 C 422.96 393.17 417.07 393.17 411.19 393.08 C 411.34 388.00 411.28 382.92 411.26 377.84 C 412.22 378.65 413.17 379.46 414.14 380.27 Z" />
</g>
</svg>
